<svg width="48" height="48" viewBox="0 0 48 48" fill="none" xmlns="http://www.w3.org/2000/svg">
<g clip-path="url(#clip0_553_4)">
<path d="M24.0771 48.0775C10.7996 48.0775 -0.0390625 37.2775 -0.0390625 23.9613C-0.0390625 10.6452 10.7996 -0.154785 24.0771 -0.154785C37.3545 -0.154785 48.1932 10.6452 48.1932 23.9613C48.1932 37.2775 37.3545 48.0775 24.0771 48.0775ZM24.0771 1.85812C11.8835 1.85812 1.97384 11.7678 1.97384 23.9613C1.97384 36.1549 11.8835 46.0646 24.0771 46.0646C36.2706 46.0646 46.1803 36.1549 46.1803 23.9613C46.1803 11.7678 36.2706 1.85812 24.0771 1.85812Z" fill="black"/>
<path d="M24.1934 41.1481L24.9676 41.1094L24.5417 39.9868L24.1934 41.1481Z" fill="black"/>
<path d="M21.2511 39.4062L20.6705 39.29L20.5156 40.1029L21.0963 40.2191C21.3672 40.2578 21.5608 40.1417 21.5995 39.9094C21.6769 39.6384 21.5221 39.4449 21.2511 39.4062Z" fill="black"/>
<path d="M20.9023 31.5484H22.4507L21.6765 29.3032L20.9023 31.5484Z" fill="black"/>
<path d="M28.7225 8.5549C28.7613 8.36135 28.6838 8.1678 28.4129 8.09039L27.7935 7.93555L27.6387 8.67103L28.258 8.82587C28.4903 8.90329 28.6838 8.74845 28.7225 8.5549Z" fill="black"/>
<path d="M29.419 23.7679C30.1158 23.7679 30.6964 23.3034 30.6964 22.3356V16.8776C30.6964 15.9098 30.1158 15.4453 29.419 15.4453C28.7222 15.4453 28.1416 15.9098 28.1416 16.8776V22.3743C28.1803 23.3421 28.761 23.7679 29.419 23.7679Z" fill="black"/>
<path d="M13.3156 12.3482C13.4317 12.3482 13.5866 12.3095 13.7027 12.1933C13.8188 12.0772 13.8962 11.9611 13.8962 11.8062C13.8962 11.6127 13.8188 11.4966 13.4317 11.0707C13.0446 10.6449 12.8898 10.5288 12.7349 10.5288C12.6188 10.5288 12.464 10.5675 12.3478 10.6836C12.2317 10.7998 12.1543 10.9546 12.1543 11.0707C12.1543 11.2643 12.2317 11.3804 12.6188 11.8062C13.0059 12.232 13.122 12.3095 13.3156 12.3482Z" fill="black"/>
<path d="M17.6896 39.9485L17.767 38.7485L16.9541 39.6389L17.6896 39.9485Z" fill="black"/>
<path d="M16.0638 28.5288H15.1348V32.5933H16.0638C16.4896 32.5933 16.7606 32.4772 16.9928 32.2062C17.2251 31.9353 17.2638 31.4707 17.2638 30.5417C17.2638 29.6127 17.2251 29.1869 16.9928 28.9159C16.7606 28.6449 16.4896 28.5288 16.0638 28.5288Z" fill="black"/>
<path d="M32.0899 8.47754L31.2383 9.32915L31.9351 9.67754L32.0899 8.47754Z" fill="black"/>
<path d="M24.0769 3.79346C12.9672 3.79346 3.90918 12.8515 3.90918 23.9612C3.90918 35.0709 12.9672 44.1289 24.0769 44.1289C35.1866 44.1289 44.2447 35.0709 44.2447 23.9612C44.2447 12.8515 35.1866 3.79346 24.0769 3.79346ZM38.2447 12.4644L37.1608 13.2386L38.9027 13.316L39.3285 13.8967L37.7414 13.7806L36.8511 15.7547L36.4253 15.1741L37.1221 13.7031L36.5027 13.6644L35.7285 14.2064L35.3802 13.7031L37.8963 11.8838L38.2447 12.4644ZM33.9479 10.3354C34.2963 9.90959 34.5285 9.63862 34.9931 9.59991C35.3027 9.5612 35.5737 9.67733 35.8447 9.87088C36.2705 10.258 36.4253 10.7999 36.0769 11.3806L35.6124 10.9935C35.7285 10.7612 35.7285 10.5289 35.4963 10.3354C35.3801 10.2193 35.2253 10.1806 35.1092 10.2193C34.9156 10.258 34.7995 10.3354 34.4124 10.7999C34.0253 11.2644 33.9479 11.3806 33.9479 11.5741C33.9479 11.6902 34.0253 11.8451 34.1414 11.9612C34.3737 12.1547 34.606 12.116 34.8382 11.9612L35.3027 12.3483C34.7995 12.7741 34.2189 12.7354 33.7931 12.3483C33.5221 12.116 33.406 11.8451 33.3672 11.5354C33.3285 11.0322 33.5995 10.7225 33.9479 10.3354ZM32.5543 31.3547C32.4382 31.2386 32.2834 31.1612 32.0124 31.1225L31.2769 31.0064C30.735 30.9289 30.3479 30.7741 30.0769 30.5031C29.7672 30.1935 29.6124 29.8064 29.6124 29.2644C29.6124 28.1418 30.4253 27.3677 31.7801 27.3677C32.6318 27.3677 33.2511 27.5612 33.7931 28.1031L33.0189 28.8773C32.6318 28.4902 32.1672 28.4515 31.7414 28.4515C31.0834 28.4515 30.7737 28.7999 30.7737 29.2257C30.7737 29.3806 30.8124 29.5354 30.9672 29.6902C31.0834 29.8064 31.2769 29.8838 31.5479 29.9225L32.2834 30.0386C32.864 30.116 33.2124 30.2709 33.4834 30.5031C33.8318 30.8128 33.9479 31.2773 33.9479 31.8193C33.9479 33.0193 32.9414 33.716 31.6253 33.716C30.6963 33.716 29.9608 33.5225 29.3414 32.9031L30.1156 32.1289C30.5027 32.516 31.0447 32.6709 31.6253 32.6709C32.3608 32.6709 32.7479 32.3999 32.7479 31.8967C32.7479 31.6644 32.6705 31.4709 32.5543 31.3547ZM32.2834 7.5483L32.7092 7.74184L32.3221 11.0322L31.7414 10.7612L31.8189 10.1806L30.8124 9.67733L30.3866 10.1031L29.806 9.83217L32.2834 7.5483ZM27.5995 6.03862L28.7995 6.30959C29.3801 6.46442 29.6511 6.85152 29.535 7.39346C29.4576 7.74184 29.1866 7.89668 29.0318 7.93539C29.1866 8.05152 29.3801 8.32249 29.3027 8.70959C29.1866 9.29023 28.7221 9.48378 28.1802 9.36765L26.9027 9.05797L27.5995 6.03862ZM24.9672 16.8773C24.9672 14.0128 27.135 12.5418 29.4576 12.5418C31.7801 12.5418 33.9479 14.0128 33.9479 16.8773V22.3354C33.9479 25.1999 31.7801 26.6709 29.4576 26.6709C27.135 26.6709 24.9672 25.1999 24.9672 22.3354V16.8773ZM22.3737 5.84507L23.0318 7.08378L23.535 5.80636L24.1931 5.76765L23.3414 7.66442L23.4189 8.94184L22.7995 8.98055L22.7221 7.70313L21.6769 5.92249L22.3737 5.84507ZM20.3221 6.07733L20.4382 6.61926L19.0447 6.96765L19.2382 7.66442L20.4382 7.35475L20.5543 7.89668L19.3543 8.20636L19.5479 8.94184L20.9414 8.59346L21.0576 9.13539L19.0834 9.63862L18.3092 6.61926L20.3221 6.07733ZM14.8253 8.12894L16.7995 9.21281L15.9092 7.5483L16.4511 7.27733L17.9221 10.0257L17.4576 10.2967L15.4834 9.1741L16.3737 10.8773L15.8318 11.1483L14.3608 8.39991L14.8253 8.12894ZM11.9608 10.258C12.2318 10.0257 12.5027 9.9483 12.8124 9.9483C13.2382 9.98701 13.5092 10.258 13.8576 10.6451C14.206 11.0322 14.4769 11.3418 14.4769 11.7677C14.4769 12.0773 14.3608 12.3483 14.0898 12.5806C13.8189 12.8128 13.5479 12.9289 13.2382 12.8902C12.8124 12.8515 12.5414 12.5806 12.1931 12.1935C11.8447 11.8064 11.5737 11.4967 11.5737 11.0709C11.5737 10.7612 11.6898 10.4902 11.9608 10.258ZM8.63176 14.3225L10.4898 14.5935L9.56079 12.9677L9.90918 12.4644L12.5027 14.2064L12.1156 14.7096L10.606 13.7031L11.264 14.8644L11.0318 15.2128L9.71563 15.058L11.2253 16.0644L10.8769 16.5677L8.28337 14.8257L8.63176 14.3225ZM9.79305 32.9806C9.75434 33.0193 9.67692 33.0193 9.63821 33.0193C9.52208 33.0193 9.44466 32.9806 9.40595 32.8644C7.78015 30.1935 6.88982 27.0967 6.88982 23.9225C6.88982 21.5999 7.35434 19.3547 8.24466 17.2257C8.32208 17.0709 8.47692 16.9935 8.63176 17.0709C8.7866 17.1483 8.86402 17.3031 8.7866 17.458C7.89628 19.5096 7.47047 21.6773 7.47047 23.9225C7.47047 26.9806 8.32208 29.9612 9.90918 32.5547C9.9866 32.7096 9.94789 32.9031 9.79305 32.9806ZM12.3866 34.4128C12.2705 34.2967 12.1543 34.2193 11.9995 34.2193C11.806 34.2193 11.6898 34.2967 11.264 34.6838C10.8382 35.0709 10.7221 35.2257 10.7221 35.3806C10.7221 35.4967 10.7608 35.6515 10.8769 35.7677C10.9931 35.9225 11.1479 35.9612 11.3027 35.9612C11.4576 35.9612 11.5737 35.8838 11.6898 35.7677L11.7672 35.6902L11.3801 35.2644L11.7672 34.916L12.5414 35.8064L12.1931 36.116C11.8447 36.4257 11.6124 36.5418 11.3027 36.5418C10.9543 36.5418 10.6834 36.387 10.4511 36.116C10.2189 35.8451 10.1414 35.5741 10.1414 35.2644C10.1801 34.8386 10.4511 34.5677 10.8382 34.2193C11.2253 33.8709 11.535 33.5999 11.9608 33.5999C12.2705 33.5999 12.5414 33.716 12.7737 33.987C13.2382 34.5289 13.1608 35.1096 12.8124 35.5354L12.3866 35.0709C12.5801 34.8773 12.5801 34.6451 12.3866 34.4128ZM13.4318 38.8644C12.9285 38.4773 12.735 37.858 13.1221 37.316L14.3221 35.6515L14.8253 35.9999L13.664 37.6257C13.4705 37.9354 13.5092 38.2064 13.7801 38.3999C14.0511 38.5935 14.3608 38.5547 14.5543 38.2451L15.7156 36.6193L16.2189 36.9677L15.0189 38.6322C14.5931 39.1741 13.935 39.2128 13.4318 38.8644ZM18.1543 41.3031L17.5737 41.0709L17.6124 40.4902L16.606 40.0644L16.2189 40.4902L15.6382 40.258L17.8834 37.8193L18.3092 38.0128L18.1543 41.3031ZM17.806 33.0967C17.4189 33.4838 16.7995 33.6773 16.1801 33.6773H13.935V27.4451H16.1801C16.8382 27.4451 17.4189 27.6386 17.8447 28.0257C18.5414 28.7225 18.464 29.5741 18.464 30.5031C18.4253 31.4709 18.5027 32.3999 17.806 33.0967ZM13.935 22.3354H17.1479C17.1479 23.3031 17.7672 23.8064 18.5801 23.8064C19.4318 23.8064 20.0124 23.3031 20.0124 22.3354C20.0124 21.4838 19.3931 20.8644 18.5414 20.8644H18.0769V18.0773H18.5414C19.5092 18.0773 19.8576 17.3806 19.8576 16.7612C19.8576 15.8709 19.2382 15.4451 18.5801 15.4451C17.9221 15.4451 17.3027 15.9096 17.3027 16.7612H14.0898C14.0898 14.1289 16.1027 12.5418 18.5801 12.5418C21.1737 12.5418 23.0705 14.2451 23.0705 16.6838C23.0705 18.1935 22.335 18.9677 21.6382 19.3935C22.4124 19.9354 23.2253 20.7483 23.2253 22.4128C23.2253 25.316 21.0189 26.7096 18.5801 26.7096C16.2576 26.6709 13.935 25.4322 13.935 22.3354ZM22.2189 39.987C22.1414 40.4128 21.8318 40.6451 21.5221 40.6838L21.9479 42.116L21.2511 41.9999L20.864 40.6838L20.4382 40.6064L20.206 41.8451L19.6253 41.7289L20.1672 38.6709L21.3672 38.9031C22.0253 38.9806 22.2963 39.4838 22.2189 39.987ZM22.7995 32.5935H20.5931L20.206 33.716H18.9285L21.2124 27.4838H22.1801L24.4253 33.6773H23.1479L22.7995 32.5935ZM25.3543 42.1547L25.1608 41.6128L24.0382 41.6515L23.8834 42.1935L23.264 42.2322L24.2705 39.0967H24.735L25.9737 42.1547H25.3543ZM24.1931 27.4451H25.5092L26.6705 29.9612L27.8318 27.4451H29.1479L27.2898 31.1225V33.6773H26.0898V31.1225L24.1931 27.4451ZM29.264 41.458L27.5995 39.9096L28.064 41.7677L27.4834 41.9225L26.7092 38.9031L27.2511 38.7483L28.9156 40.2967L28.4511 38.4386L29.0318 38.3225L29.806 41.3418L29.264 41.458ZM32.0124 40.3741L30.8511 38.0902L30.1156 38.4386L29.8834 37.9741L31.8576 36.9677L32.0898 37.4322L31.3543 37.7806L32.5156 40.0644L32.0124 40.3741ZM34.6447 38.8644L32.7479 36.4257L34.3737 35.1483L34.7221 35.5741L33.5995 36.4644L34.064 37.0451L35.0318 36.2709L35.3802 36.6967L34.4124 37.4709L34.8769 38.0515L35.9995 37.1612L36.3479 37.587L34.6447 38.8644ZM37.4705 36.4257L35.1092 34.4128L36.4253 32.8644L36.8511 33.2128L35.9221 34.2967L36.464 34.7612L37.2769 33.8322L37.7027 34.1806L36.8898 35.1096L37.4705 35.6128L38.3995 34.5289L38.8253 34.8773L37.4705 36.4257ZM38.7866 32.516C38.7479 32.516 38.6705 32.516 38.6318 32.4773C38.4769 32.3999 38.4382 32.2064 38.5156 32.0902C39.9092 29.6128 40.6447 26.787 40.6447 23.9612C40.6447 21.4451 40.1027 19.0064 39.0189 16.7612C38.9414 16.6064 39.0189 16.4515 39.135 16.3741C39.2898 16.2967 39.4447 16.3741 39.5221 16.4902C40.6447 18.8128 41.2253 21.3289 41.2253 23.9612C41.2253 26.9031 40.4511 29.8064 39.0189 32.3999C38.9802 32.4773 38.864 32.516 38.7866 32.516Z" fill="black"/>
<path d="M28.9543 7.27729C28.9931 7.08374 28.8769 6.89019 28.6447 6.85148L28.064 6.73535L27.9092 7.43213L28.4898 7.54825C28.7221 7.62567 28.9156 7.50954 28.9543 7.27729Z" fill="black"/>
</g>
<defs>
<clipPath id="clip0_553_4">
<rect width="48" height="48" fill="white"/>
</clipPath>
</defs>
</svg>
