<svg width="49" height="48" viewBox="0 0 49 48" fill="none" xmlns="http://www.w3.org/2000/svg">
<path d="M21.5832 0.367347C21.0321 0.55102 20.3383 0.857143 20.0526 1.02041C17.6852 2.40816 15.5015 4.93878 13.8689 8.18367C13.1954 9.55102 12.2158 12 12.2158 12.3469C12.2158 12.5102 12.9097 12.5306 17.624 12.5306H23.0321V6.26531C23.0321 0.387755 23.0117 0 22.8281 0C22.6852 0 22.1342 0.163265 21.5832 0.367347Z" fill="black"/>
<path d="M25.1152 6.26522V12.5305H30.5234C35.2173 12.5305 35.9316 12.5101 35.9316 12.3469C35.9316 12.0203 34.952 9.59175 34.3397 8.28563C32.6663 4.87747 30.1152 2.02032 27.6458 0.775424C27.1152 0.510118 25.5846 0.0203225 25.2989 0.0203225C25.1356 -8.56804e-05 25.1152 0.999914 25.1152 6.26522Z" fill="black"/>
<path d="M15.1147 1.65318C10.8902 3.38787 7.44127 6.04094 4.78821 9.59196C3.82902 10.8777 3.0127 12.1634 3.0127 12.3879C3.0127 12.4899 3.95147 12.5307 6.48208 12.4899L9.95147 12.4491L10.4005 11.1634C11.6862 7.4491 13.4005 4.36747 15.4413 2.16338C15.9311 1.65318 16.278 1.22461 16.2168 1.22461C16.1351 1.24502 15.6453 1.42869 15.1147 1.65318Z" fill="black"/>
<path d="M32.5427 1.9794C34.8488 4.40797 36.5018 7.48961 38.1753 12.3672C38.2569 12.5916 45.1141 12.5916 45.1141 12.3672C45.1141 12.1019 43.4814 9.69369 42.5222 8.53042C39.9712 5.48961 36.8692 3.2243 33.1549 1.67328C31.7671 1.12226 31.7263 1.12226 32.5427 1.9794Z" fill="black"/>
<path d="M1.66531 15.1832C0.44082 18.0404 -0.23265 22.5302 0.0734723 25.8567C0.297962 28.3669 1.09388 31.7343 1.74694 33.0404L1.93062 33.3873H5.66531C9.17551 33.3873 9.4 33.3669 9.33878 33.1628C9.21633 32.7343 8.8898 30.9588 8.68572 29.5098C8.35919 27.3873 8.35919 20.5914 8.68572 18.469C8.8898 17.0404 9.21633 15.2445 9.33878 14.8159C9.4 14.6118 9.17551 14.6118 5.6449 14.6118H1.91021L1.66531 15.1832Z" fill="black"/>
<path d="M11.1955 16.2649C10.624 19.1832 10.4812 21.3057 10.5424 24.9383C10.6036 28.2241 10.7261 29.3873 11.2567 32.0812L11.522 33.4077H17.2567H23.0118V24.02V14.6118H17.2567H11.5016L11.1955 16.2649Z" fill="black"/>
<path d="M25.1152 23.9996V33.3873H30.8703H36.6254L36.952 31.6934C37.5234 28.6526 37.5846 27.9792 37.5846 23.9996C37.5846 20.02 37.5438 19.3465 36.952 16.2853L36.6254 14.6118H30.8703H25.1152V23.9996Z" fill="black"/>
<path d="M38.787 14.8159C38.9706 15.4486 39.3584 17.8159 39.5421 19.3873C39.8074 21.7343 39.8074 26.2037 39.5421 28.5914C39.3788 30.1424 38.9706 32.5506 38.787 33.1628C38.7257 33.3669 38.9502 33.3873 42.5217 33.3873H46.3176L46.8686 31.6934C48.5829 26.5302 48.5829 21.4486 46.8686 16.2853L46.3176 14.6118H42.5217C38.9502 14.6118 38.7257 14.6322 38.787 14.8159Z" fill="black"/>
<path d="M3.0127 35.6327C3.0127 35.8572 4.56372 38.2042 5.33923 39.1633C7.5229 41.8164 10.1964 43.9797 13.2576 45.5103C14.4413 46.1021 16.0127 46.7756 16.2168 46.7756C16.2576 46.7756 15.8902 46.3674 15.4005 45.8368C13.2576 43.5511 11.5229 40.3062 9.93106 35.6327C9.86984 35.4082 3.0127 35.4082 3.0127 35.6327Z" fill="black"/>
<path d="M12.2158 35.6533C12.2158 35.9798 13.1954 38.4084 13.8077 39.7145C15.4811 43.1227 18.0321 45.9798 20.5015 47.2247C21.0321 47.49 22.5628 47.9798 22.8485 47.9798C22.9913 47.9798 23.0117 47.0002 23.0117 41.7145V35.4492H17.624C12.9301 35.4696 12.2158 35.49 12.2158 35.6533Z" fill="black"/>
<path d="M25.1142 41.7351C25.1142 47.0208 25.1346 48.0004 25.2774 48.0004C25.5631 48.0004 27.0937 47.4902 27.6244 47.2453C30.1346 45.9596 32.6652 43.1025 34.3591 39.5923C35.0529 38.1841 35.9101 36.0004 35.9101 35.6739C35.9101 35.5106 35.2978 35.4902 30.5019 35.4902H25.0938V41.7351H25.1142Z" fill="black"/>
<path d="M38.1751 35.612C36.5016 40.5712 34.8894 43.5304 32.5425 45.9794C32.1547 46.408 31.8486 46.7549 31.8894 46.7549C32.1139 46.7549 33.6649 46.1018 34.869 45.4896C37.9302 43.959 40.6037 41.8161 42.7874 39.1427C43.5629 38.2039 45.1139 35.8569 45.1139 35.612C45.1139 35.408 38.2567 35.408 38.1751 35.612Z" fill="black"/>
</svg>
