<svg width="131" height="30" viewBox="0 0 131 30" fill="none" xmlns="http://www.w3.org/2000/svg">
<path d="M63.4384 24.0105V8.15636C63.4384 7.77416 63.7488 7.46094 64.1338 7.46094H71.2462C75.6544 7.46094 77.3068 9.50412 77.3068 13.4698C77.3068 17.4355 74.2032 19.1338 71.2462 19.1338H68.5651C68.1829 19.1338 67.8696 19.4442 67.8696 19.8293V24.0076C67.8696 24.3898 67.5593 24.703 67.1742 24.703H64.131C63.7488 24.703 63.4355 24.3927 63.4355 24.0076L63.4384 24.0105ZM69.9157 15.6912C71.7146 15.6912 72.7492 15.2486 72.7492 13.2773C72.7492 11.3059 71.8123 10.9122 70.0393 10.9122H68.5651C68.1829 10.9122 67.8696 11.2226 67.8696 11.6077V14.9957C67.8696 15.3779 68.18 15.6912 68.5651 15.6912H69.9157V15.6912Z" fill="#1F1F1F"/>
<path d="M102.477 22.1454H100.204C99.822 22.1454 99.6064 21.2546 99.8478 20.9558L101.408 18.8953C101.506 18.7717 101.535 18.6051 101.483 18.4556L100.247 14.9785C100.104 14.5733 99.5317 14.5733 99.3852 14.9785L96.0086 24.4042C95.9425 24.5852 95.7701 24.7059 95.5775 24.7059H92.0401C91.724 24.7059 91.5027 24.3927 91.609 24.0938L97.4397 7.76555C97.5058 7.58451 97.6782 7.46094 97.8707 7.46094H101.733C101.926 7.46094 102.098 7.58163 102.164 7.76555L107.995 24.0938C108.101 24.3927 107.88 24.7059 107.564 24.7059H104.026C103.834 24.7059 103.661 24.5852 103.595 24.4013L102.9 22.4472C102.834 22.2662 102.661 22.1426 102.469 22.1426L102.477 22.1454Z" fill="#1F1F1F"/>
<path d="M55.8835 22.1454H53.6104C53.2282 22.1454 53.0127 21.2546 53.2541 20.9558L54.8145 18.8953C54.9122 18.7717 54.9409 18.6051 54.8892 18.4556L53.6535 14.9785C53.5098 14.5733 52.938 14.5733 52.7914 14.9785L49.4148 24.4042C49.3487 24.5852 49.1763 24.7059 48.9838 24.7059H45.4463C45.1302 24.7059 44.9089 24.3927 45.0153 24.0938L50.8459 7.76555C50.912 7.58451 51.0844 7.46094 51.277 7.46094H55.1392C55.3318 7.46094 55.5042 7.58163 55.5703 7.76555L61.401 24.0938C61.5073 24.3927 61.286 24.7059 60.9699 24.7059H57.4324C57.2399 24.7059 57.0675 24.5852 57.0014 24.4013L56.3059 22.4472C56.2398 22.2662 56.0674 22.1426 55.8749 22.1426L55.8835 22.1454Z" fill="#1F1F1F"/>
<path d="M108.957 24.4071V7.76272C108.957 7.59892 109.089 7.46387 109.256 7.46387H113.21C113.322 7.46387 113.426 7.52709 113.474 7.62767L119.233 18.9155C119.345 19.131 119.653 19.131 119.765 18.9155L125.524 7.62767C125.576 7.52709 125.676 7.46387 125.788 7.46387H129.742C129.906 7.46387 130.041 7.59605 130.041 7.76272V24.4071C130.041 24.5709 129.909 24.706 129.742 24.706H125.906C125.742 24.706 125.607 24.5738 125.607 24.4071V17.3752C125.607 17.062 125.185 16.9614 125.044 17.2401L121.799 23.6082C121.748 23.7088 121.647 23.772 121.535 23.772H117.466C117.354 23.772 117.25 23.7088 117.202 23.6082L113.957 17.243C113.814 16.9643 113.394 17.0648 113.394 17.3781V24.41C113.394 24.5738 113.262 24.7088 113.095 24.7088H109.259C109.095 24.7088 108.96 24.5766 108.96 24.41L108.957 24.4071Z" fill="#1F1F1F"/>
<path d="M92.8706 11.3522H88.8762C88.6233 11.3522 88.4164 11.5591 88.4164 11.812V24.2119C88.4164 24.4648 88.2095 24.6717 87.9566 24.6717H84.4421C84.1892 24.6717 83.9823 24.4648 83.9823 24.2119V11.812C83.9823 11.5591 83.7754 11.3522 83.5225 11.3522H79.5252C79.2723 11.3522 79.0654 11.1453 79.0654 10.8924V7.96125C79.0654 7.70836 79.2723 7.50146 79.5252 7.50146H92.8706C93.1235 7.50146 93.3304 7.70836 93.3304 7.96125V10.8924C93.3304 11.1453 93.1235 11.3522 92.8706 11.3522V11.3522Z" fill="#1F1F1F"/>
<path d="M46.2769 11.3522H42.2824C42.0296 11.3522 41.8227 11.5591 41.8227 11.812V24.2119C41.8227 24.4648 41.6157 24.6717 41.3628 24.6717H37.8483C37.5954 24.6717 37.3885 24.4648 37.3885 24.2119V11.812C37.3885 11.5591 37.1816 11.3522 36.9288 11.3522H32.9315C32.6786 11.3522 32.4717 11.1453 32.4717 10.8924V7.96125C32.4717 7.70836 32.6786 7.50146 32.9315 7.50146H46.2769C46.5297 7.50146 46.7366 7.70836 46.7366 7.96125V10.8924C46.7366 11.1453 46.5297 11.3522 46.2769 11.3522V11.3522Z" fill="#1F1F1F"/>
<path d="M14.3684 29.0225C22.3039 29.0225 28.7368 22.5895 28.7368 14.6541C28.7368 6.7186 22.3039 0.285645 14.3684 0.285645C6.43296 0.285645 0 6.7186 0 14.6541C0 22.5895 6.43296 29.0225 14.3684 29.0225Z" fill="#1F1F1F"/>
<path d="M3.2152 11.8663L5.14346 9.54728C5.1722 9.51279 5.21244 9.49268 5.25842 9.49268H12.1667C12.2472 9.49268 12.3162 9.55878 12.3162 9.64211V22.5277C12.3162 22.6484 12.1782 22.7174 12.0805 22.6484L9.55456 20.8265C9.5172 20.7977 9.49422 20.7546 9.49422 20.7058L9.52295 12.1767C9.52295 12.0933 9.45685 12.0273 9.37352 12.0273L3.33303 12.1106C3.24969 12.1106 3.18359 12.0445 3.18359 11.9612C3.18359 11.9267 3.19509 11.8922 3.21808 11.8663H3.2152Z" fill="#FAFAFA"/>
<path d="M13.825 9.64191L13.7129 22.5534C13.7129 22.6683 13.8393 22.7401 13.937 22.6827L16.3739 21.2056C16.417 21.1797 16.4458 21.1309 16.4458 21.0792V12.1478C16.4458 12.0673 16.5119 12.0012 16.5923 11.9983L20.8052 11.9725C20.8885 11.9725 20.9546 12.0385 20.9546 12.1219V15.0329C20.9546 15.0846 20.9287 15.1306 20.8856 15.1594L18.4631 16.6738C18.42 16.6997 18.3941 16.7456 18.3941 16.7974L18.3424 19.7314C18.3424 19.8492 18.4688 19.9211 18.5694 19.8607L23.9403 16.5014C23.9834 16.4755 24.0093 16.4267 24.0093 16.3749V10.6103C24.0093 10.5902 24.0064 10.573 23.9978 10.5557C23.7938 10.0557 23.4662 9.71086 23.0179 9.51832C23.0006 9.5097 22.9805 9.50684 22.9604 9.50684H13.9744C13.8939 9.50684 13.8278 9.57293 13.825 9.6534V9.64191Z" fill="#FAFAFA"/>
</svg>
