<svg width="131" height="29" viewBox="0 0 131 29" fill="none" xmlns="http://www.w3.org/2000/svg">
<path d="M63.704 23.7248V7.87072C63.704 7.48852 64.0144 7.17529 64.3995 7.17529H71.5118C75.92 7.17529 77.5724 9.21847 77.5724 13.1842C77.5724 17.1498 74.4688 18.8482 71.5118 18.8482H68.8307C68.4485 18.8482 68.1352 19.1585 68.1352 19.5436V23.722C68.1352 24.1042 67.8249 24.4174 67.4398 24.4174H64.3966C64.0144 24.4174 63.7012 24.107 63.7012 23.722L63.704 23.7248ZM70.1813 15.4055C71.9803 15.4055 73.0148 14.963 73.0148 12.9916C73.0148 11.0203 72.0779 10.6266 70.3049 10.6266H68.8307C68.4485 10.6266 68.1352 10.9369 68.1352 11.322V14.7101C68.1352 15.0923 68.4456 15.4055 68.8307 15.4055H70.1813V15.4055Z" fill="white"/>
<path d="M102.743 21.8598H100.47C100.088 21.8598 99.8721 20.969 100.113 20.6701L101.674 18.6097C101.772 18.4861 101.8 18.3194 101.749 18.17L100.513 14.6928C100.369 14.2876 99.7974 14.2876 99.6508 14.6928L96.2742 24.1185C96.2081 24.2996 96.0357 24.4203 95.8432 24.4203H92.3057C91.9896 24.4203 91.7683 24.107 91.8746 23.8082L97.7053 7.4799C97.7714 7.29886 97.9438 7.17529 98.1364 7.17529H101.999C102.191 7.17529 102.364 7.29599 102.43 7.4799L108.26 23.8082C108.367 24.107 108.145 24.4203 107.829 24.4203H104.292C104.099 24.4203 103.927 24.2996 103.861 24.1157L103.165 22.1616C103.099 21.9805 102.927 21.8569 102.734 21.8569L102.743 21.8598Z" fill="white"/>
<path d="M56.1491 21.8598H53.876C53.4938 21.8598 53.2783 20.969 53.5197 20.6701L55.0801 18.6097C55.1778 18.4861 55.2066 18.3194 55.1548 18.17L53.9192 14.6928C53.7755 14.2876 53.2036 14.2876 53.057 14.6928L49.6805 24.1185C49.6144 24.2996 49.442 24.4203 49.2494 24.4203H45.7119C45.3958 24.4203 45.1746 24.107 45.2809 23.8082L51.1116 7.4799C51.1777 7.29886 51.3501 7.17529 51.5426 7.17529H55.4049C55.5974 7.17529 55.7698 7.29599 55.8359 7.4799L61.6666 23.8082C61.7729 24.107 61.5517 24.4203 61.2356 24.4203H57.6981C57.5055 24.4203 57.3331 24.2996 57.267 24.1157L56.5716 22.1616C56.5055 21.9805 56.333 21.8569 56.1405 21.8569L56.1491 21.8598Z" fill="white"/>
<path d="M109.223 24.1214V7.47708C109.223 7.31328 109.355 7.17822 109.521 7.17822H113.476C113.588 7.17822 113.691 7.24145 113.74 7.34202L119.499 18.6298C119.611 18.8454 119.918 18.8454 120.031 18.6298L125.789 7.34202C125.841 7.24145 125.942 7.17822 126.054 7.17822H130.008C130.172 7.17822 130.307 7.31041 130.307 7.47708V24.1214C130.307 24.2852 130.175 24.4203 130.008 24.4203H126.172C126.008 24.4203 125.873 24.2881 125.873 24.1214V17.0896C125.873 16.7763 125.45 16.6757 125.31 16.9545L122.065 23.3226C122.013 23.4231 121.913 23.4864 121.801 23.4864H117.732C117.62 23.4864 117.516 23.4231 117.467 23.3226L114.223 16.9574C114.079 16.6786 113.66 16.7792 113.66 17.0924V24.1243C113.66 24.2881 113.527 24.4232 113.361 24.4232H109.524C109.361 24.4232 109.226 24.291 109.226 24.1243L109.223 24.1214Z" fill="white"/>
<path d="M93.1362 11.0665H89.1418C88.8889 11.0665 88.682 11.2735 88.682 11.5263V23.9263C88.682 24.1792 88.4751 24.3861 88.2222 24.3861H84.7077C84.4548 24.3861 84.2479 24.1792 84.2479 23.9263V11.5263C84.2479 11.2735 84.041 11.0665 83.7881 11.0665H79.7908C79.538 11.0665 79.3311 10.8596 79.3311 10.6068V7.6756C79.3311 7.42272 79.538 7.21582 79.7908 7.21582H93.1362C93.3891 7.21582 93.596 7.42272 93.596 7.6756V10.6068C93.596 10.8596 93.3891 11.0665 93.1362 11.0665V11.0665Z" fill="white"/>
<path d="M46.5425 11.0665H42.5481C42.2952 11.0665 42.0883 11.2735 42.0883 11.5263V23.9263C42.0883 24.1792 41.8813 24.3861 41.6285 24.3861H38.114C37.8611 24.3861 37.6542 24.1792 37.6542 23.9263V11.5263C37.6542 11.2735 37.4473 11.0665 37.1944 11.0665H33.1971C32.9442 11.0665 32.7373 10.8596 32.7373 10.6068V7.6756C32.7373 7.42272 32.9442 7.21582 33.1971 7.21582H46.5425C46.7954 7.21582 47.0023 7.42272 47.0023 7.6756V10.6068C47.0023 10.8596 46.7954 11.0665 46.5425 11.0665V11.0665Z" fill="white"/>
<path d="M14.3684 28.7368C22.3039 28.7368 28.7368 22.3039 28.7368 14.3684C28.7368 6.43296 22.3039 0 14.3684 0C6.43296 0 0 6.43296 0 14.3684C0 22.3039 6.43296 28.7368 14.3684 28.7368Z" fill="white"/>
<path d="M3.2152 11.5807L5.14346 9.26163C5.1722 9.22715 5.21244 9.20703 5.25842 9.20703H12.1667C12.2472 9.20703 12.3162 9.27313 12.3162 9.35647V22.242C12.3162 22.3627 12.1782 22.4317 12.0805 22.3627L9.55456 20.5408C9.5172 20.5121 9.49422 20.469 9.49422 20.4201L9.52295 11.891C9.52295 11.8077 9.45685 11.7416 9.37352 11.7416L3.33303 11.825C3.24969 11.825 3.18359 11.7589 3.18359 11.6755C3.18359 11.641 3.19509 11.6066 3.21808 11.5807H3.2152Z" fill="black"/>
<path d="M13.825 9.35626L13.7129 22.2677C13.7129 22.3827 13.8393 22.4545 13.937 22.397L16.3739 20.92C16.417 20.8941 16.4458 20.8452 16.4458 20.7935V11.8621C16.4458 11.7816 16.5119 11.7155 16.5923 11.7127L20.8052 11.6868C20.8885 11.6868 20.9546 11.7529 20.9546 11.8362V14.7473C20.9546 14.799 20.9287 14.845 20.8856 14.8737L18.4631 16.3882C18.42 16.414 18.3941 16.46 18.3941 16.5117L18.3424 19.4458C18.3424 19.5636 18.4688 19.6354 18.5694 19.5751L23.9403 16.2157C23.9834 16.1899 24.0093 16.141 24.0093 16.0893V10.3247C24.0093 10.3046 24.0064 10.2873 23.9978 10.2701C23.7938 9.77007 23.4662 9.42522 23.0179 9.23268C23.0006 9.22406 22.9805 9.22119 22.9604 9.22119H13.9744C13.8939 9.22119 13.8278 9.28729 13.825 9.36775V9.35626Z" fill="black"/>
</svg>
