<svg width="144" height="48" viewBox="0 0 144 48" fill="none" xmlns="http://www.w3.org/2000/svg">
<rect width="144" height="48" rx="7.2" fill="black"/>
<path d="M29.6454 24.3155C29.66 23.2116 29.9603 22.1292 30.5185 21.1691C31.0766 20.209 31.8745 19.4023 32.8378 18.8241C32.2258 17.9709 31.4185 17.2687 30.48 16.7733C29.5414 16.278 28.4975 16.0031 27.4311 15.9705C25.1563 15.7374 22.9509 17.2994 21.7917 17.2994C20.6101 17.2994 18.8253 15.9936 16.9034 16.0322C15.6603 16.0715 14.4487 16.4244 13.3868 17.0566C12.3249 17.6889 11.4489 18.5789 10.8441 19.64C8.22423 24.0685 10.1784 30.5769 12.6881 34.1565C13.9437 35.9094 15.4112 37.8674 17.3314 37.7979C19.2104 37.7218 19.9121 36.6281 22.1802 36.6281C24.4273 36.6281 25.0857 37.7979 27.0449 37.7538C29.0611 37.7218 30.3314 35.9931 31.5431 34.2237C32.4452 32.9747 33.1395 31.5943 33.6 30.1337C32.4286 29.65 31.429 28.8403 30.7257 27.8057C30.0225 26.771 29.6468 25.5572 29.6454 24.3155Z" fill="white"/>
<path d="M25.9449 13.6165C27.0443 12.328 27.5859 10.6719 27.4548 8.99991C25.7752 9.17213 24.2238 9.95582 23.1096 11.1948C22.5648 11.8001 22.1476 12.5043 21.8817 13.2671C21.6159 14.0299 21.5066 14.8364 21.5602 15.6405C22.4003 15.6489 23.2314 15.4711 23.9909 15.1206C24.7504 14.77 25.4185 14.2557 25.9449 13.6165Z" fill="white"/>
<path d="M46.7384 16.5H45.5414V10.3723H43.4373V9.30176H48.8478V10.3723H46.7384V16.5ZM51.5425 16.5949C50.0238 16.5949 49.0798 15.6668 49.0798 14.0742V13.3465C49.0798 11.7434 50.1134 10.8258 51.474 10.8258C52.8714 10.8258 53.8576 11.7961 53.8576 13.3465V13.9951H50.24V14.2693C50.24 15.0498 50.7146 15.6246 51.5373 15.6246C52.149 15.6246 52.5708 15.3346 52.65 14.9865H53.7943C53.7257 15.6457 53.0455 16.5949 51.5425 16.5949ZM50.24 13.2094H52.7132V13.1408C52.7132 12.3234 52.2228 11.7803 51.4792 11.7803C50.7357 11.7803 50.24 12.3234 50.24 13.1408V13.2094ZM50.9308 10.0242L52.1859 8.15742H53.2722L51.8009 10.0242H50.9308ZM55.371 16.5V8.92207H56.5417V16.5H55.371ZM60.5496 16.5949C59.0308 16.5949 58.0869 15.6668 58.0869 14.0742V13.3465C58.0869 11.7434 59.1205 10.8258 60.481 10.8258C61.8785 10.8258 62.8646 11.7961 62.8646 13.3465V13.9951H59.247V14.2693C59.247 15.0498 59.7216 15.6246 60.5443 15.6246C61.156 15.6246 61.5779 15.3346 61.657 14.9865H62.8013C62.7328 15.6457 62.0525 16.5949 60.5496 16.5949ZM59.247 13.2094H61.7203V13.1408C61.7203 12.3234 61.2298 11.7803 60.4863 11.7803C59.7427 11.7803 59.247 12.3234 59.247 13.1408V13.2094ZM59.9378 10.0242L61.1929 8.15742H62.2792L60.808 10.0242H59.9378ZM64.0775 14.0848V13.3043C64.0775 11.8014 65.0056 10.8258 66.4822 10.8258C67.906 10.8258 68.6759 11.7012 68.7023 12.682H67.5949C67.5474 12.3234 67.2837 11.8383 66.5085 11.8383C65.6912 11.8383 65.2535 12.4236 65.2535 13.3307V14.0795C65.2535 15.0129 65.7228 15.5877 66.5138 15.5877C67.2574 15.5877 67.5474 15.2396 67.6265 14.7914H68.7339C68.7023 15.767 67.9798 16.5949 66.4822 16.5949C64.9951 16.5949 64.0775 15.6352 64.0775 14.0848ZM70.1736 16.5V8.92207H71.339V11.9174H71.397C71.5183 11.5219 71.9718 10.8363 73.0898 10.8363C74.1761 10.8363 74.9513 11.4691 74.9513 12.7453V16.5H73.7859V13.0986C73.7859 12.2602 73.3166 11.8752 72.6521 11.8752C71.8136 11.8752 71.339 12.5133 71.339 13.4045V16.5H70.1736ZM78.205 16.5844C77.124 16.5844 76.3804 15.9252 76.3804 14.8811C76.3804 13.8896 77.066 13.2252 78.3527 13.2252H79.7607V12.7084C79.7607 12.0914 79.3546 11.8014 78.7113 11.8014C78.0785 11.8014 77.7937 12.0598 77.7041 12.4184H76.5914C76.6599 11.4955 77.3613 10.8363 78.7482 10.8363C79.94 10.8363 80.9261 11.332 80.9261 12.7295V16.5H79.8134V15.7828H79.7607C79.5128 16.2047 79.0277 16.5844 78.205 16.5844ZM78.5689 15.6457C79.2334 15.6457 79.7607 15.208 79.7607 14.6174V14.0268H78.5373C77.857 14.0268 77.5564 14.359 77.5564 14.8125C77.5564 15.3768 78.0416 15.6457 78.5689 15.6457ZM82.7349 16.5V10.9207H83.9003V11.7908H83.9636C84.0849 11.4164 84.491 10.8363 85.4244 10.8363C85.5826 10.8363 85.7091 10.8521 85.8199 10.8732V11.9543C85.7197 11.9227 85.514 11.9121 85.3189 11.9121C84.3802 11.9121 83.9214 12.4605 83.9214 13.2146V16.5H82.7349ZM89.1158 17.5969C90.0175 17.5969 90.4552 17.1223 90.4552 16.3154V15.5244H90.3919C90.181 16.0096 89.6115 16.3945 88.831 16.3945C87.6023 16.3945 86.6742 15.5139 86.6742 13.974V13.2727C86.6742 11.7328 87.597 10.8469 88.831 10.8469C89.6537 10.8469 90.2443 11.2898 90.4289 11.7697H90.4869V10.9207H91.6207V16.3682C91.6207 17.9396 90.4763 18.5408 89.0789 18.5408C87.5759 18.5408 86.8587 17.792 86.7955 16.9482H87.9556C88.0294 17.3227 88.4566 17.5969 89.1158 17.5969ZM89.1949 11.8488C88.3775 11.8488 87.866 12.4553 87.866 13.415V13.8844C87.866 14.8389 88.4197 15.44 89.2054 15.44C90.007 15.44 90.4552 14.7967 90.4552 14.0109V13.299C90.4552 12.4975 89.9806 11.8488 89.1949 11.8488ZM95.5863 16.5949C94.0675 16.5949 93.1236 15.6668 93.1236 14.0742V13.3465C93.1236 11.7434 94.1572 10.8258 95.5177 10.8258C96.9152 10.8258 97.9013 11.7961 97.9013 13.3465V13.9951H94.2837V14.2693C94.2837 15.0498 94.7583 15.6246 95.581 15.6246C96.1927 15.6246 96.6146 15.3346 96.6937 14.9865H97.838C97.7695 15.6457 97.0892 16.5949 95.5863 16.5949ZM94.2837 13.2094H96.757V13.1408C96.757 12.3234 96.2666 11.7803 95.523 11.7803C94.7794 11.7803 94.2837 12.3234 94.2837 13.1408V13.2094ZM99.4517 16.5V10.9207H100.617V11.7908H100.68C100.802 11.4164 101.208 10.8363 102.141 10.8363C102.299 10.8363 102.426 10.8521 102.537 10.8732V11.9543C102.436 11.9227 102.231 11.9121 102.036 11.9121C101.097 11.9121 100.638 12.4605 100.638 13.2146V16.5H99.4517ZM108.042 10.8469C108.828 10.8469 109.429 11.1949 109.645 11.7592H109.703V8.92207H110.874V16.5H109.735V15.6088H109.677C109.508 16.173 108.838 16.5738 108.026 16.5738C106.745 16.5738 105.912 15.6562 105.912 14.1691V13.2463C105.912 11.7592 106.761 10.8469 108.042 10.8469ZM108.369 11.8488C107.589 11.8488 107.103 12.4184 107.103 13.4098V14.0004C107.103 15.0076 107.594 15.5719 108.395 15.5719C109.186 15.5719 109.703 15.0129 109.703 14.0742V13.2621C109.703 12.4078 109.139 11.8488 108.369 11.8488ZM114.18 16.5844C113.099 16.5844 112.356 15.9252 112.356 14.8811C112.356 13.8896 113.041 13.2252 114.328 13.2252H115.736V12.7084C115.736 12.0914 115.33 11.8014 114.687 11.8014C114.054 11.8014 113.769 12.0598 113.679 12.4184H112.567C112.635 11.4955 113.337 10.8363 114.724 10.8363C115.915 10.8363 116.902 11.332 116.902 12.7295V16.5H115.789V15.7828H115.736C115.488 16.2047 115.003 16.5844 114.18 16.5844ZM114.544 15.6457C115.209 15.6457 115.736 15.208 115.736 14.6174V14.0268H114.513C113.832 14.0268 113.532 14.359 113.532 14.8125C113.532 15.3768 114.017 15.6457 114.544 15.6457ZM118.636 16.5V10.9207H119.786V11.9174H119.844C119.986 11.4797 120.393 10.8363 121.521 10.8363C122.644 10.8363 123.398 11.4586 123.398 12.74V16.5H122.228V13.0934C122.228 12.2496 121.785 11.8752 121.126 11.8752C120.261 11.8752 119.807 12.5186 119.807 13.4045V16.5H118.636ZM124.896 12.5502C124.896 11.332 125.919 10.8258 127.053 10.8258C128.276 10.8258 129.115 11.4322 129.115 12.4342H128.06C128.028 12.0756 127.696 11.7064 127.021 11.7064C126.425 11.7064 126.019 11.9807 126.019 12.4395C126.019 13.0512 126.81 13.1303 127.427 13.2357C128.466 13.415 129.268 13.7578 129.268 14.8072C129.268 15.9357 128.377 16.5949 126.963 16.5949C125.64 16.5949 124.791 15.9832 124.791 14.9865H125.93C125.993 15.4242 126.315 15.7143 127.021 15.7143C127.807 15.7143 128.129 15.3715 128.129 14.9496C128.129 14.3801 127.491 14.2957 126.742 14.148C125.724 13.9424 124.896 13.6418 124.896 12.5502Z" fill="white"/>
<path d="M44.6742 35.5V21.1861H46.8855V35.5H44.6742ZM50.3358 26.5352H48.6524L49.6485 21.9033H51.8199L50.3358 26.5352ZM52.4413 35.5H50.1403L54.822 21.9033H57.352L62.0237 35.5H59.6331L58.4278 31.7348H53.6565L52.4413 35.5ZM56.097 24.2541H56.0073L54.1645 30.0016H57.9198L56.097 24.2541ZM68.3427 35.6494C66.9781 35.6494 65.9421 35.002 65.3843 34.0357H65.3046V38.9963H63.0933V24.9713H65.2449V26.5152H65.3246C65.9023 25.5092 66.9781 24.8318 68.3925 24.8318C70.7533 24.8318 72.4367 26.6148 72.4367 29.7625V30.6988C72.4367 33.8266 70.7732 35.6494 68.3427 35.6494ZM67.8347 33.8266C69.2392 33.8266 70.1955 32.701 70.1955 30.5793V29.8422C70.1955 27.8002 69.299 26.6348 67.7949 26.6348C66.2509 26.6348 65.2847 27.8898 65.2847 29.8322V30.5793C65.2847 32.5715 66.2609 33.8266 67.8347 33.8266ZM79.5525 35.6494C78.1879 35.6494 77.152 35.002 76.5941 34.0357H76.5145V38.9963H74.3031V24.9713H76.4547V26.5152H76.5344C77.1121 25.5092 78.1879 24.8318 79.6024 24.8318C81.9631 24.8318 83.6465 26.6148 83.6465 29.7625V30.6988C83.6465 33.8266 81.983 35.6494 79.5525 35.6494ZM79.0445 33.8266C80.449 33.8266 81.4053 32.701 81.4053 30.5793V29.8422C81.4053 27.8002 80.5088 26.6348 79.0047 26.6348C77.4608 26.6348 76.4945 27.8898 76.4945 29.8322V30.5793C76.4945 32.5715 77.4707 33.8266 79.0445 33.8266ZM88.1663 31.7248H90.3777C90.4773 32.9002 91.5132 33.9062 93.4357 33.9062C95.1988 33.9062 96.2447 33.0795 96.2447 31.7945C96.2447 30.7586 95.5474 30.2008 94.0931 29.8521L91.8619 29.2943C90.1087 28.8859 88.5349 27.84 88.5349 25.6287C88.5349 23.0289 90.806 21.6045 93.4456 21.6045C96.0853 21.6045 98.2867 23.0289 98.3365 25.5689H96.165C96.0654 24.4135 95.1788 23.4572 93.4158 23.4572C91.8619 23.4572 90.806 24.1943 90.806 25.4594C90.806 26.3459 91.4236 26.9834 92.6886 27.2723L94.9099 27.8201C96.9519 28.3182 98.5058 29.2844 98.5058 31.5953C98.5058 34.2648 96.3443 35.7689 93.2663 35.7689C89.4812 35.7689 88.2162 33.5576 88.1663 31.7248ZM101.169 24.9713V22.4113H103.341V24.9713H105.393V26.7443H103.341V32.3623C103.341 33.5078 103.769 33.8266 104.954 33.8266C105.144 33.8266 105.323 33.8266 105.452 33.8066V35.5C105.273 35.5299 104.855 35.5697 104.406 35.5697C101.846 35.5697 101.139 34.6533 101.139 32.5416V26.7443H99.685V24.9713H101.169ZM111.333 24.792C114.361 24.792 116.005 26.9236 116.005 29.7924V30.6391C116.005 33.6074 114.371 35.6793 111.333 35.6793C108.295 35.6793 106.641 33.6074 106.641 30.6391V29.7924C106.641 26.9336 108.305 24.792 111.333 24.792ZM111.333 26.565C109.69 26.565 108.873 27.9098 108.873 29.8223V30.6291C108.873 32.5117 109.68 33.8963 111.333 33.8963C112.987 33.8963 113.783 32.5217 113.783 30.6291V29.8223C113.783 27.8998 112.977 26.565 111.333 26.565ZM117.841 35.5V24.9713H120.053V26.3559H120.132C120.401 25.6984 121.188 24.8219 122.652 24.8219C122.941 24.8219 123.19 24.8418 123.4 24.8816V26.834C123.21 26.7842 122.822 26.7543 122.453 26.7543C120.68 26.7543 120.083 27.85 120.083 29.2645V35.5H117.841ZM128.732 35.6793C125.913 35.6793 124.121 33.8166 124.121 30.6988V29.633C124.121 26.6945 125.874 24.792 128.643 24.792C131.452 24.792 133.145 26.7643 133.145 29.7326V30.7387H126.302V30.9877C126.302 32.7607 127.258 33.9361 128.762 33.9361C129.888 33.9361 130.655 33.3783 130.924 32.4719H133.026C132.707 34.1752 131.332 35.6793 128.732 35.6793ZM126.302 29.1947H130.984V29.1748C130.984 27.6807 130.057 26.5053 128.653 26.5053C127.228 26.5053 126.302 27.6807 126.302 29.1748V29.1947Z" fill="white"/>
</svg>
