<svg width="145" height="52" viewBox="0 0 145 52" fill="none" xmlns="http://www.w3.org/2000/svg">
<g clip-path="url(#clip0_1_399)">
<path d="M2.81883 37.6579C2.05698 36.2411 1.49392 34.7438 1.03658 33.204C0.227618 30.4772 -0.109067 27.6861 0.0311222 24.8513C0.334483 18.7404 2.55224 13.3879 6.57752 8.79496C9.69846 5.23392 13.5341 2.73463 18.0351 1.26264C20.9469 0.311192 23.9403 -0.0955881 26.9958 0.0181723C29.7306 0.119293 32.3988 0.608807 34.9694 1.57749C34.5086 2.63121 34.0489 3.68493 33.5847 4.73751C32.6482 6.86103 31.7082 8.98341 30.7706 11.1069C30.7085 11.0909 30.6453 11.0771 30.5833 11.0575C26.4051 9.78203 22.3971 10.175 18.589 12.325C12.5953 15.7079 9.42842 22.8771 11.044 29.4959C11.1659 29.9958 11.298 30.4922 11.4244 30.9897C11.3371 31.0518 11.2486 31.1115 11.1636 31.1782C8.3816 33.3373 5.60079 35.4976 2.81998 37.6579H2.81883Z" fill="#FD2B25"/>
<path d="M30.7705 11.1072C31.7093 8.98363 32.6481 6.86125 33.5846 4.73772C34.0488 3.68515 34.5073 2.63143 34.9693 1.57771C35.5174 1.78914 36.085 1.96381 36.6125 2.21776C44.5837 6.06493 49.6409 12.27 51.4932 20.9457C52.7009 26.6027 51.9104 32.0678 49.4111 37.2835C47.9874 40.2528 46.0339 42.844 43.7587 45.2043C43.5886 45.3812 43.3852 45.5248 43.1979 45.6846C43.1428 45.5639 43.1152 45.4168 43.0279 45.3272C40.6412 42.8808 38.2488 40.4401 35.8575 37.9983C35.8908 37.9569 35.9184 37.9109 35.9575 37.8765C37.48 36.5481 38.6889 34.9716 39.6185 33.1859C40.5883 31.3243 41.1606 29.3364 41.3375 27.2462C41.5766 24.4263 41.0342 21.7397 39.7989 19.2025C38.8348 17.2238 37.5582 15.4875 35.823 14.0833C34.6533 13.1365 33.4571 12.2597 32.0747 11.6564C31.6426 11.468 31.206 11.2887 30.7716 11.106L30.7705 11.1072Z" fill="#006EFE"/>
<path d="M35.8564 37.9994C38.2476 40.4413 40.6401 42.8819 43.0267 45.3284C43.1141 45.418 43.1416 45.5651 43.1968 45.6857C42.2545 46.6234 41.1916 47.4071 40.0747 48.1195C37.0261 50.0638 33.6949 51.214 30.1166 51.6978C28.439 51.9242 26.7567 52.0517 25.0675 51.9805C21.8615 51.8449 18.7636 51.1887 15.8138 49.9006C10.0776 47.3956 5.7788 43.3473 2.87619 37.8075C2.85206 37.7604 2.83712 37.7076 2.81873 37.6581C5.59954 35.4978 8.3815 33.3375 11.1623 31.1784C11.2473 31.1129 11.3358 31.0531 11.4232 30.9899C11.5243 31.2496 11.6162 31.5139 11.7288 31.769C14.2649 37.5582 18.5763 40.9859 24.9423 41.6294C27.0371 41.8408 29.0813 41.5065 31.0623 40.7963C32.8331 40.162 34.4188 39.2071 35.8564 37.9994Z" fill="#01AA47"/>
<path d="M35.8564 37.9994C34.4188 39.206 32.8331 40.1609 31.0623 40.7963C29.0813 41.5065 27.0371 41.8408 24.9423 41.6294C18.5774 40.9859 14.266 37.5582 11.7288 31.769C11.6174 31.5139 11.5243 31.2496 11.4232 30.9899C11.2956 30.4924 11.1646 29.9948 11.0428 29.4961C9.42833 22.8785 12.5941 15.7093 18.5878 12.3252C22.3959 10.1752 26.4051 9.78225 30.582 11.0577C30.6441 11.0761 30.7073 11.0911 30.7693 11.1072C31.2037 11.291 31.6403 11.4691 32.0724 11.6576C33.4548 12.2608 34.651 13.1376 35.8207 14.0845C37.5559 15.4887 38.8325 17.2249 39.7966 19.2037C41.033 21.7409 41.5743 24.4263 41.3352 27.2473C41.1583 29.3375 40.5849 31.3255 39.6162 33.187C38.6866 34.9727 37.4777 36.5504 35.9552 37.8776C35.9161 37.9121 35.8885 37.9581 35.8552 37.9994H35.8564ZM37.6823 22.7636C37.5582 22.7555 37.4789 22.7452 37.3996 22.7452C34.6441 22.7452 31.8885 22.7452 29.133 22.7498C28.9101 22.7498 28.7802 22.6889 28.7032 22.4602C27.9219 20.1448 27.129 17.834 26.3407 15.5208C26.2063 15.1267 26.0764 14.7314 25.9213 14.2672C25.873 14.3867 25.8558 14.4234 25.8431 14.4625C24.9457 17.1548 24.0471 19.8472 23.1566 22.5418C23.0888 22.7475 23.0014 22.8394 22.7762 22.8383C20.0207 22.8268 17.2652 22.8233 14.5096 22.8187C14.4625 22.8187 14.4154 22.8348 14.3143 22.8544C14.497 22.9796 14.6383 23.0715 14.7739 23.1704C15.9265 24.0069 17.0779 24.8469 18.2304 25.6823C19.245 26.4177 20.2608 27.1508 21.2789 27.8828C21.4203 27.9839 21.4548 28.0931 21.3984 28.2666C20.9733 29.5662 20.5619 30.8716 20.139 32.1724C19.7552 33.3536 19.3611 34.5326 18.975 35.7139C18.9015 35.9414 18.8452 36.1735 18.7716 36.4378C18.8808 36.4206 18.944 36.4298 18.9808 36.4033C19.5335 36.0011 20.0816 35.5898 20.6355 35.1887C22.3269 33.9627 24.0241 32.7446 25.7087 31.5105C25.9213 31.3554 26.0753 31.3852 26.2557 31.5185C26.929 32.0126 27.599 32.5113 28.2781 32.9986C29.8271 34.1109 31.3806 35.2163 32.9331 36.3229C32.9687 36.3482 33.0204 36.3539 33.1066 36.3826C33.0813 36.2815 33.0698 36.2229 33.0514 36.1655C32.8055 35.4025 32.5608 34.6383 32.3137 33.8753C31.7116 32.0218 31.1095 30.1695 30.505 28.3171C30.4568 28.1701 30.4188 28.0517 30.5866 27.9322C31.5277 27.2611 32.4619 26.5797 33.3962 25.8983C34.8107 24.8664 36.2241 23.8299 37.6811 22.7647L37.6823 22.7636Z" fill="#FEFEFD"/>
<path d="M37.6823 22.7636C36.2252 23.8299 34.8118 24.8653 33.3973 25.8972C32.4631 26.5786 31.5289 27.26 30.5878 27.9311C30.42 28.0506 30.4591 28.1689 30.5062 28.316C31.1095 30.1683 31.7127 32.0218 32.3149 33.8742C32.5631 34.6372 32.8078 35.4002 33.0526 36.1643C33.071 36.2218 33.0825 36.2804 33.1077 36.3815C33.0215 36.3528 32.971 36.3482 32.9342 36.3217C31.3818 35.2152 29.8282 34.1086 28.2792 32.9974C27.6001 32.5102 26.9302 32.0115 26.2568 31.5174C26.0764 31.3852 25.9224 31.3542 25.7099 31.5093C24.0241 32.7435 22.3281 33.9615 20.6366 35.1876C20.0827 35.5886 19.5358 36 18.9819 36.4022C18.9451 36.4286 18.8819 36.4206 18.7728 36.4367C18.8463 36.1735 18.9015 35.9403 18.9762 35.7127C19.3623 34.5315 19.7564 33.3536 20.1402 32.1712C20.5631 30.8704 20.9744 29.5662 21.3996 28.2654C21.4559 28.0919 21.4214 27.9828 21.2801 27.8816C20.2631 27.1497 19.2462 26.4165 18.2315 25.6811C17.0779 24.8446 15.9276 24.0057 14.7751 23.1692C14.6395 23.0704 14.4981 22.9796 14.3154 22.8532C14.4154 22.8348 14.4625 22.8176 14.5108 22.8176C17.2663 22.8222 20.0218 22.8256 22.7774 22.8371C23.0026 22.8371 23.0899 22.7463 23.1577 22.5406C24.0471 19.846 24.9469 17.1537 25.8443 14.4614C25.8569 14.4223 25.8742 14.3855 25.9224 14.266C26.0776 14.7302 26.2074 15.1255 26.3419 15.5197C27.1301 17.8328 27.923 20.1436 28.7044 22.4591C28.7814 22.6877 28.9112 22.7498 29.1342 22.7486C31.8897 22.7429 34.6452 22.744 37.4008 22.744C37.48 22.744 37.5582 22.7544 37.6834 22.7624L37.6823 22.7636Z" fill="#FEBD01"/>
</g>
<path d="M69.0014 16.9375V34H65.7905V16.9375H69.0014ZM74.2983 16.9375V19.4805H60.5522V16.9375H74.2983ZM81.0487 31.3047V25.457C81.0487 25.0273 80.9745 24.6562 80.8261 24.3438C80.6776 24.0312 80.4511 23.7891 80.1464 23.6172C79.8417 23.4453 79.455 23.3594 78.9862 23.3594C78.5722 23.3594 78.2089 23.4297 77.8964 23.5703C77.5917 23.7109 77.3573 23.9102 77.1933 24.168C77.0292 24.418 76.9472 24.707 76.9472 25.0352H73.8417C73.8417 24.5117 73.9667 24.0156 74.2167 23.5469C74.4667 23.0703 74.8222 22.6484 75.2831 22.2812C75.7519 21.9062 76.3105 21.6133 76.9589 21.4023C77.6151 21.1914 78.3495 21.0859 79.162 21.0859C80.123 21.0859 80.9784 21.25 81.7284 21.5781C82.4862 21.8984 83.08 22.3828 83.5097 23.0312C83.9472 23.6797 84.1659 24.4961 84.1659 25.4805V31.0117C84.1659 31.6445 84.205 32.1875 84.2831 32.6406C84.369 33.0859 84.494 33.4727 84.6581 33.8008V34H81.5058C81.3573 33.6797 81.244 33.2734 81.1659 32.7812C81.0878 32.2812 81.0487 31.7891 81.0487 31.3047ZM81.4823 26.2773L81.5058 28.1172H79.5487C79.0644 28.1172 78.6386 28.168 78.2714 28.2695C77.9042 28.3633 77.6034 28.5039 77.369 28.6914C77.1347 28.8711 76.9589 29.0898 76.8417 29.3477C76.7245 29.5977 76.6659 29.8828 76.6659 30.2031C76.6659 30.5156 76.7362 30.7969 76.8769 31.0469C77.0253 31.2969 77.2362 31.4961 77.5097 31.6445C77.7909 31.7852 78.119 31.8555 78.494 31.8555C79.0409 31.8555 79.5175 31.7461 79.9237 31.5273C80.33 31.3008 80.6464 31.0273 80.873 30.707C81.0995 30.3867 81.2206 30.082 81.2362 29.793L82.1269 31.1289C82.0175 31.4492 81.8534 31.7891 81.6347 32.1484C81.4159 32.5078 81.1347 32.8438 80.7909 33.1562C80.4472 33.4688 80.0331 33.7266 79.5487 33.9297C79.0644 34.1328 78.5019 34.2344 77.8612 34.2344C77.0409 34.2344 76.3065 34.0703 75.6581 33.7422C75.0097 33.4141 74.498 32.9648 74.123 32.3945C73.748 31.8242 73.5605 31.1758 73.5605 30.4492C73.5605 29.7773 73.6855 29.1836 73.9355 28.668C74.1855 28.1523 74.5565 27.7188 75.0487 27.3672C75.5409 27.0078 76.1503 26.7383 76.8769 26.5586C77.6112 26.3711 78.4511 26.2773 79.3964 26.2773H81.4823ZM89.5687 23.7578V38.875H86.4633V21.3203H89.3344L89.5687 23.7578ZM97.7133 27.5312V27.7773C97.7133 28.6992 97.6039 29.5547 97.3851 30.3438C97.1742 31.125 96.8617 31.8086 96.4476 32.3945C96.0336 32.9727 95.518 33.4258 94.9008 33.7539C94.2914 34.0742 93.5883 34.2344 92.7914 34.2344C92.0101 34.2344 91.3305 34.0859 90.7523 33.7891C90.1742 33.4844 89.6859 33.0547 89.2875 32.5C88.889 31.9453 88.5687 31.3008 88.3265 30.5664C88.0922 29.8242 87.9164 29.0156 87.7992 28.1406V27.3555C87.9164 26.4258 88.0922 25.582 88.3265 24.8242C88.5687 24.0586 88.889 23.3984 89.2875 22.8438C89.6859 22.2812 90.1703 21.8477 90.7406 21.543C91.3187 21.2383 91.9945 21.0859 92.768 21.0859C93.5726 21.0859 94.2797 21.2383 94.889 21.543C95.5062 21.8477 96.0258 22.2852 96.4476 22.8555C96.8695 23.4258 97.1859 24.1055 97.3969 24.8945C97.6078 25.6836 97.7133 26.5625 97.7133 27.5312ZM94.6078 27.7773V27.5312C94.6078 26.9688 94.557 26.4492 94.4555 25.9727C94.3539 25.4883 94.1976 25.0664 93.9867 24.707C93.7758 24.3398 93.5023 24.0547 93.1664 23.8516C92.8305 23.6484 92.4242 23.5469 91.9476 23.5469C91.4711 23.5469 91.0609 23.625 90.7172 23.7812C90.3734 23.9375 90.0922 24.1602 89.8734 24.4492C89.6547 24.7383 89.4828 25.082 89.3578 25.4805C89.2406 25.8711 89.1625 26.3047 89.1234 26.7812V28.7266C89.1937 29.3047 89.3305 29.8242 89.5336 30.2852C89.7367 30.7461 90.0336 31.1133 90.4242 31.3867C90.8226 31.6602 91.3383 31.7969 91.9711 31.7969C92.4476 31.7969 92.8539 31.6914 93.1898 31.4805C93.5258 31.2695 93.7992 30.9805 94.0101 30.6133C94.2211 30.2383 94.3734 29.8086 94.4672 29.3242C94.5609 28.8398 94.6078 28.3242 94.6078 27.7773ZM107.054 16.9375V34H103.843V16.9375H107.054ZM112.35 16.9375V19.4805H98.6044V16.9375H112.35ZM119.101 31.3047V25.457C119.101 25.0273 119.027 24.6562 118.878 24.3438C118.73 24.0312 118.503 23.7891 118.199 23.6172C117.894 23.4453 117.507 23.3594 117.038 23.3594C116.624 23.3594 116.261 23.4297 115.949 23.5703C115.644 23.7109 115.41 23.9102 115.245 24.168C115.081 24.418 114.999 24.707 114.999 25.0352H111.894C111.894 24.5117 112.019 24.0156 112.269 23.5469C112.519 23.0703 112.874 22.6484 113.335 22.2812C113.804 21.9062 114.363 21.6133 115.011 21.4023C115.667 21.1914 116.402 21.0859 117.214 21.0859C118.175 21.0859 119.031 21.25 119.781 21.5781C120.538 21.8984 121.132 22.3828 121.562 23.0312C121.999 23.6797 122.218 24.4961 122.218 25.4805V31.0117C122.218 31.6445 122.257 32.1875 122.335 32.6406C122.421 33.0859 122.546 33.4727 122.71 33.8008V34H119.558C119.41 33.6797 119.296 33.2734 119.218 32.7812C119.14 32.2812 119.101 31.7891 119.101 31.3047ZM119.535 26.2773L119.558 28.1172H117.601C117.117 28.1172 116.691 28.168 116.324 28.2695C115.956 28.3633 115.656 28.5039 115.421 28.6914C115.187 28.8711 115.011 29.0898 114.894 29.3477C114.777 29.5977 114.718 29.8828 114.718 30.2031C114.718 30.5156 114.788 30.7969 114.929 31.0469C115.077 31.2969 115.288 31.4961 115.562 31.6445C115.843 31.7852 116.171 31.8555 116.546 31.8555C117.093 31.8555 117.57 31.7461 117.976 31.5273C118.382 31.3008 118.699 31.0273 118.925 30.707C119.152 30.3867 119.273 30.082 119.288 29.793L120.179 31.1289C120.07 31.4492 119.906 31.7891 119.687 32.1484C119.468 32.5078 119.187 32.8438 118.843 33.1562C118.499 33.4688 118.085 33.7266 117.601 33.9297C117.117 34.1328 116.554 34.2344 115.913 34.2344C115.093 34.2344 114.359 34.0703 113.71 33.7422C113.062 33.4141 112.55 32.9648 112.175 32.3945C111.8 31.8242 111.613 31.1758 111.613 30.4492C111.613 29.7773 111.738 29.1836 111.988 28.668C112.238 28.1523 112.609 27.7188 113.101 27.3672C113.593 27.0078 114.202 26.7383 114.929 26.5586C115.663 26.3711 116.503 26.2773 117.449 26.2773H119.535ZM127.609 23.9219V34H124.515V21.3203H127.433L127.609 23.9219ZM127.152 27.2031H126.203C126.203 26.3203 126.308 25.5078 126.519 24.7656C126.738 24.0234 127.058 23.3789 127.48 22.832C127.902 22.2773 128.422 21.8477 129.039 21.543C129.664 21.2383 130.387 21.0859 131.207 21.0859C131.777 21.0859 132.301 21.1719 132.777 21.3438C133.254 21.5078 133.664 21.7695 134.008 22.1289C134.359 22.4805 134.629 22.9414 134.816 23.5117C135.004 24.0742 135.097 24.75 135.097 25.5391V34H132.004V25.8555C132.004 25.2617 131.918 24.7969 131.746 24.4609C131.582 24.125 131.344 23.8906 131.031 23.7578C130.719 23.6172 130.344 23.5469 129.906 23.5469C129.422 23.5469 129.004 23.6445 128.652 23.8398C128.308 24.0273 128.023 24.2891 127.797 24.625C127.578 24.9609 127.414 25.3477 127.305 25.7852C127.203 26.2227 127.152 26.6953 127.152 27.2031ZM134.863 26.6289L133.586 26.8633C133.594 26.0664 133.703 25.3203 133.914 24.625C134.125 23.9219 134.433 23.3086 134.84 22.7852C135.254 22.2539 135.765 21.8398 136.375 21.543C136.992 21.2383 137.703 21.0859 138.508 21.0859C139.133 21.0859 139.695 21.1758 140.195 21.3555C140.703 21.5273 141.137 21.8047 141.496 22.1875C141.855 22.5625 142.129 23.0508 142.316 23.6523C142.512 24.2539 142.609 24.9883 142.609 25.8555V34H139.492V25.8438C139.492 25.2266 139.406 24.7539 139.234 24.4258C139.07 24.0977 138.832 23.8711 138.519 23.7461C138.207 23.6133 137.84 23.5469 137.418 23.5469C136.988 23.5469 136.613 23.6289 136.293 23.793C135.98 23.9492 135.715 24.168 135.496 24.4492C135.285 24.7305 135.125 25.0586 135.015 25.4336C134.914 25.8008 134.863 26.1992 134.863 26.6289Z" fill="#212121"/>
<defs>
<clipPath id="clip0_1_399">
<rect width="52.0483" height="52" fill="white"/>
</clipPath>
</defs>
</svg>
