<svg width="144" height="48" viewBox="0 0 144 48" fill="none" xmlns="http://www.w3.org/2000/svg">
<rect width="144" height="48" rx="7.2" fill="black"/>
<path d="M23.8133 23.9392L13.6933 34.9228C13.6943 34.9247 13.6943 34.9276 13.6952 34.9296C14.006 36.1222 15.0706 36.9999 16.3348 36.9999C16.8404 36.9999 17.3147 36.86 17.7216 36.615L17.7539 36.5956L29.1447 29.8742L23.8133 23.9392Z" fill="#EA4335"/>
<path d="M34.0511 22.0689L34.0416 22.0621L29.1237 19.147L23.5832 24.1888L29.1436 29.873L34.0349 26.9872C34.8923 26.5128 35.4749 25.5885 35.4749 24.5232C35.4749 23.4637 34.9008 22.5442 34.0511 22.0689Z" fill="#FBBC04"/>
<path d="M13.6931 14.0762C13.6323 14.3056 13.6 14.5466 13.6 14.7955V34.2044C13.6 34.4532 13.6323 34.6942 13.6941 34.9227L24.161 24.22L13.6931 14.0762Z" fill="#4285F4"/>
<path d="M23.8881 24.4999L29.1253 19.1452L17.7478 12.3995C17.3343 12.1458 16.8515 12 16.3353 12C15.0712 12 14.0047 12.8797 13.6939 14.0733C13.6939 14.0743 13.6929 14.0752 13.6929 14.0762L23.8881 24.4999Z" fill="#34A853"/>
<path d="M43.9776 19V11.2672H46.3428C47.5236 11.2672 48.4704 11.6236 49.1832 12.3364C49.9032 13.0492 50.2632 13.9816 50.2632 15.1336C50.2632 16.2928 49.9032 17.2288 49.1832 17.9416C48.4704 18.6472 47.5236 19 46.3428 19H43.9776ZM44.9712 12.2176V18.0496H46.3428C47.2428 18.0496 47.952 17.794 48.4704 17.2828C48.9888 16.7644 49.248 16.048 49.248 15.1336C49.248 14.2264 48.9888 13.5136 48.4704 12.9952C47.952 12.4768 47.2428 12.2176 46.3428 12.2176H44.9712ZM52.4383 19H51.4447V11.2672H52.4383V19ZM58.7707 16.9372C58.7707 17.614 58.5223 18.1576 58.0255 18.568C57.5215 18.9712 56.9095 19.1728 56.1895 19.1728C55.5487 19.1728 54.9835 18.9856 54.4939 18.6112C54.0043 18.2368 53.6659 17.7256 53.4787 17.0776L54.4291 16.6888C54.4939 16.9192 54.5839 17.128 54.6991 17.3152C54.8143 17.5024 54.9475 17.6644 55.0987 17.8012C55.2571 17.9308 55.4299 18.0352 55.6171 18.1144C55.8043 18.1864 56.0023 18.2224 56.2111 18.2224C56.6647 18.2224 57.0355 18.1072 57.3235 17.8768C57.6115 17.6392 57.7555 17.326 57.7555 16.9372C57.7555 16.6132 57.6367 16.336 57.3991 16.1056C57.1759 15.8824 56.7583 15.6664 56.1463 15.4576C55.5271 15.2344 55.1419 15.0832 54.9907 15.004C54.1699 14.5864 53.7595 13.9708 53.7595 13.1572C53.7595 12.5884 53.9863 12.1024 54.4399 11.6992C54.9007 11.296 55.4659 11.0944 56.1355 11.0944C56.7259 11.0944 57.2371 11.2456 57.6691 11.548C58.1011 11.8432 58.3891 12.214 58.5331 12.6604L57.6043 13.0492C57.5179 12.7612 57.3451 12.5236 57.0859 12.3364C56.8339 12.142 56.5243 12.0448 56.1571 12.0448C55.7683 12.0448 55.4407 12.1528 55.1743 12.3688C54.9079 12.5704 54.7747 12.8332 54.7747 13.1572C54.7747 13.4236 54.8791 13.654 55.0879 13.8484C55.3183 14.0428 55.8187 14.2732 56.5891 14.5396C57.3739 14.806 57.9319 15.1336 58.2631 15.5224C58.6015 15.904 58.7707 16.3756 58.7707 16.9372ZM60.9602 15.868V19H59.9666V11.2672H62.6018C63.2714 11.2672 63.8402 11.4904 64.3082 11.9368C64.7834 12.3832 65.021 12.9268 65.021 13.5676C65.021 14.2228 64.7834 14.77 64.3082 15.2092C63.8474 15.6484 63.2786 15.868 62.6018 15.868H60.9602ZM60.9602 12.2176V14.9176H62.6234C63.0194 14.9176 63.347 14.7844 63.6062 14.518C63.8726 14.2516 64.0058 13.9348 64.0058 13.5676C64.0058 13.2076 63.8726 12.8944 63.6062 12.628C63.347 12.3544 63.0194 12.2176 62.6234 12.2176H60.9602ZM73.528 15.1336C73.528 16.2784 73.1464 17.236 72.3832 18.0064C71.6128 18.784 70.6696 19.1728 69.5536 19.1728C68.4304 19.1728 67.4872 18.784 66.724 18.0064C65.9608 17.236 65.5792 16.2784 65.5792 15.1336C65.5792 13.9888 65.9608 13.0312 66.724 12.2608C67.4872 11.4832 68.4304 11.0944 69.5536 11.0944C70.6768 11.0944 71.62 11.4868 72.3832 12.2716C73.1464 13.042 73.528 13.996 73.528 15.1336ZM66.5944 15.1336C66.5944 16.0264 66.8752 16.7644 67.4368 17.3476C68.0056 17.9308 68.7112 18.2224 69.5536 18.2224C70.396 18.2224 71.098 17.9308 71.6596 17.3476C72.2284 16.7716 72.5128 16.0336 72.5128 15.1336C72.5128 14.2336 72.2284 13.4956 71.6596 12.9196C71.098 12.3364 70.396 12.0448 69.5536 12.0448C68.7112 12.0448 68.0056 12.3364 67.4368 12.9196C66.8752 13.5028 66.5944 14.2408 66.5944 15.1336ZM75.6942 19H74.7006V11.2672H75.9102L79.6686 17.2828H79.7118L79.6686 15.7924V11.2672H80.6622V19H79.6254L75.6942 12.6928H75.651L75.6942 14.1832V19ZM83.2141 19H82.2205V11.2672H83.2141V19ZM84.7729 19V11.2672H87.5701C88.1821 11.2672 88.7077 11.4688 89.1469 11.872C89.5861 12.268 89.8057 12.7684 89.8057 13.3732C89.8057 14.1364 89.4565 14.6728 88.7581 14.9824V15.0256C89.1541 15.1552 89.4709 15.382 89.7085 15.706C89.9461 16.0228 90.0649 16.3864 90.0649 16.7968C90.0649 17.4304 89.8345 17.956 89.3737 18.3736C88.9273 18.7912 88.3765 19 87.7213 19H84.7729ZM85.7665 12.2176V14.5828H87.5701C87.9229 14.5828 88.2181 14.464 88.4557 14.2264C88.6933 13.9816 88.8121 13.7044 88.8121 13.3948C88.8121 13.0924 88.6969 12.8188 88.4665 12.574C88.2361 12.3364 87.9517 12.2176 87.6133 12.2176H85.7665ZM85.7665 15.5116V18.0496H87.7645C88.1245 18.0496 88.4305 17.9236 88.6825 17.6716C88.9273 17.4196 89.0497 17.1208 89.0497 16.7752C89.0497 16.4368 88.9237 16.1416 88.6717 15.8896C88.4197 15.6376 88.1029 15.5116 87.7213 15.5116H85.7665ZM95.527 19H91.1854V11.2672H92.179V18.0496H95.527V19ZM101.079 11.2672V12.2176H97.5579V14.6692H100.733V15.598H97.5579V18.0496H101.079V19H96.5643V11.2672H101.079ZM109.237 16.9372C109.237 17.614 108.989 18.1576 108.492 18.568C107.988 18.9712 107.376 19.1728 106.656 19.1728C106.015 19.1728 105.45 18.9856 104.961 18.6112C104.471 18.2368 104.133 17.7256 103.945 17.0776L104.896 16.6888C104.961 16.9192 105.051 17.128 105.166 17.3152C105.281 17.5024 105.414 17.6644 105.565 17.8012C105.724 17.9308 105.897 18.0352 106.084 18.1144C106.271 18.1864 106.469 18.2224 106.678 18.2224C107.131 18.2224 107.502 18.1072 107.79 17.8768C108.078 17.6392 108.222 17.326 108.222 16.9372C108.222 16.6132 108.103 16.336 107.866 16.1056C107.643 15.8824 107.225 15.6664 106.613 15.4576C105.994 15.2344 105.609 15.0832 105.457 15.004C104.637 14.5864 104.226 13.9708 104.226 13.1572C104.226 12.5884 104.453 12.1024 104.907 11.6992C105.367 11.296 105.933 11.0944 106.602 11.0944C107.193 11.0944 107.704 11.2456 108.136 11.548C108.568 11.8432 108.856 12.214 109 12.6604L108.071 13.0492C107.985 12.7612 107.812 12.5236 107.553 12.3364C107.301 12.142 106.991 12.0448 106.624 12.0448C106.235 12.0448 105.907 12.1528 105.641 12.3688C105.375 12.5704 105.241 12.8332 105.241 13.1572C105.241 13.4236 105.346 13.654 105.555 13.8484C105.785 14.0428 106.285 14.2732 107.056 14.5396C107.841 14.806 108.399 15.1336 108.73 15.5224C109.068 15.904 109.237 16.3756 109.237 16.9372ZM113.123 19.1728C112.266 19.1728 111.575 18.892 111.049 18.3304C110.523 17.776 110.261 17.0416 110.261 16.1272V11.2672H111.254V16.1704C111.254 16.804 111.42 17.3044 111.751 17.6716C112.082 18.0388 112.539 18.2224 113.123 18.2224C113.706 18.2224 114.163 18.0388 114.494 17.6716C114.825 17.3044 114.991 16.804 114.991 16.1704V11.2672H115.985V16.1272C115.985 17.0632 115.725 17.8048 115.207 18.352C114.689 18.8992 113.994 19.1728 113.123 19.1728ZM118.356 12.2176V14.9392H119.955C120.358 14.9392 120.7 14.8096 120.981 14.5504C121.262 14.284 121.402 13.9564 121.402 13.5676C121.402 13.2076 121.269 12.8944 121.002 12.628C120.743 12.3544 120.416 12.2176 120.02 12.2176H118.356ZM118.356 19H117.363V11.2672H119.998C120.668 11.2672 121.236 11.4904 121.704 11.9368C122.18 12.376 122.417 12.9196 122.417 13.5676C122.417 14.1004 122.241 14.5756 121.888 14.9932C121.542 15.4036 121.103 15.6664 120.57 15.7816L120.549 15.814L122.72 18.9568V19H121.542L119.458 15.868H118.356V19Z" fill="white"/>
<path d="M112.222 35.6916H114.176V22.4778H112.222V35.6916ZM129.826 27.2375L127.586 32.9666H127.519L125.194 27.2375H123.088L126.575 35.2445L124.588 39.6987H126.625L132 27.2375H129.826ZM118.742 34.1906C118.101 34.1906 117.209 33.8682 117.209 33.0681C117.209 32.0491 118.32 31.658 119.281 31.658C120.14 31.658 120.545 31.8451 121.067 32.0998C120.915 33.3239 119.87 34.1906 118.742 34.1906ZM118.978 26.949C117.563 26.949 116.096 27.5779 115.491 28.9721L117.225 29.7025C117.596 28.9721 118.287 28.7332 119.011 28.7332C120.022 28.7332 121.05 29.3452 121.067 30.434V30.5693C120.712 30.3653 119.955 30.0598 119.028 30.0598C117.158 30.0598 115.254 31.0967 115.254 33.0342C115.254 34.8026 116.788 35.9421 118.505 35.9421C119.82 35.9421 120.545 35.347 120.999 34.6494H121.067V35.6694H122.953V30.6031C122.953 28.2576 121.218 26.949 118.978 26.949ZM106.898 28.8463H104.118V24.317H106.898C108.36 24.317 109.189 25.5378 109.189 26.5811C109.189 27.6054 108.36 28.8463 106.898 28.8463ZM106.848 22.4778H102.165V35.6916H104.118V30.6855H106.848C109.014 30.6855 111.144 29.1021 111.144 26.5811C111.144 24.0601 109.014 22.4778 106.848 22.4778ZM81.3099 34.1927C79.9597 34.1927 78.8295 33.0522 78.8295 31.4857C78.8295 29.9023 79.9597 28.7438 81.3099 28.7438C82.6433 28.7438 83.6887 29.9023 83.6887 31.4857C83.6887 33.0522 82.6433 34.1927 81.3099 34.1927ZM83.5546 27.9774H83.4866C83.0477 27.45 82.2045 26.9733 81.1413 26.9733C78.9133 26.9733 76.8718 28.9478 76.8718 31.4857C76.8718 34.0056 78.9133 35.9643 81.1413 35.9643C82.2045 35.9643 83.0477 35.4876 83.4866 34.9422H83.5546V35.5901C83.5546 37.3099 82.6433 38.2295 81.1748 38.2295C79.9765 38.2295 79.2338 37.3606 78.9301 36.6281L77.2258 37.3437C77.715 38.536 79.0149 40 81.1748 40C83.4698 40 85.4107 38.6375 85.4107 35.3174V27.2449H83.5546V27.9774ZM86.7609 35.6916H88.7187V22.4767H86.7609V35.6916ZM91.6034 31.3324C91.5531 29.5957 92.9368 28.71 93.9319 28.71C94.7091 28.71 95.3669 29.1011 95.5858 29.6634L91.6034 31.3324ZM97.6787 29.8336C97.3079 28.8294 96.1766 26.9733 93.8649 26.9733C91.5699 26.9733 89.6635 28.7945 89.6635 31.4688C89.6635 33.9887 91.5531 35.9643 94.0838 35.9643C96.1263 35.9643 97.3079 34.7043 97.797 33.9718L96.2782 32.9497C95.7723 33.6991 95.0799 34.1927 94.0838 34.1927C93.0887 34.1927 92.3795 33.7329 91.9239 32.8313L97.8808 30.3441L97.6787 29.8336ZM50.2201 28.3527V30.2596H54.742C54.6069 31.3324 54.2528 32.1157 53.7134 32.66C53.0545 33.3249 52.0249 34.0574 50.2201 34.0574C47.4349 34.0574 45.2582 31.7922 45.2582 28.9827C45.2582 26.1721 47.4349 23.9079 50.2201 23.9079C51.7221 23.9079 52.8188 24.5041 53.6285 25.2704L54.962 23.9248C53.8307 22.835 52.3297 22 50.2201 22C46.4062 22 43.2 25.1341 43.2 28.9827C43.2 32.8313 46.4062 35.9643 50.2201 35.9643C52.2783 35.9643 53.8307 35.2825 55.0458 34.0056C56.2954 32.7457 56.6829 30.9752 56.6829 29.544C56.6829 29.1011 56.6494 28.6931 56.5813 28.3527H50.2201ZM61.8249 34.1927C60.4748 34.1927 59.31 33.0691 59.31 31.4688C59.31 29.8505 60.4748 28.7438 61.8249 28.7438C63.1741 28.7438 64.3389 29.8505 64.3389 31.4688C64.3389 33.0691 63.1741 34.1927 61.8249 34.1927ZM61.8249 26.9733C59.3603 26.9733 57.3523 28.8632 57.3523 31.4688C57.3523 34.0574 59.3603 35.9643 61.8249 35.9643C64.2886 35.9643 66.2966 34.0574 66.2966 31.4688C66.2966 28.8632 64.2886 26.9733 61.8249 26.9733ZM71.58 34.1927C70.2298 34.1927 69.065 33.0691 69.065 31.4688C69.065 29.8505 70.2298 28.7438 71.58 28.7438C72.9302 28.7438 74.0939 29.8505 74.0939 31.4688C74.0939 33.0691 72.9302 34.1927 71.58 34.1927ZM71.58 26.9733C69.1164 26.9733 67.1084 28.8632 67.1084 31.4688C67.1084 34.0574 69.1164 35.9643 71.58 35.9643C74.0436 35.9643 76.0516 34.0574 76.0516 31.4688C76.0516 28.8632 74.0436 26.9733 71.58 26.9733Z" fill="white"/>
</svg>
