<svg width="117" height="21" viewBox="0 0 117 21" fill="none" xmlns="http://www.w3.org/2000/svg">
<g clip-path="url(#clip0_269_180)">
<path d="M20.8248 7.66642C19.5252 8.60622 18.2645 9.51868 17.0028 10.4281C16.1696 11.0287 15.3363 11.6292 14.497 12.2205C14.3473 12.3258 14.3814 12.4311 14.4225 12.562C14.949 14.2104 15.4754 15.8598 16.0009 17.5082C16.2175 18.1872 16.431 18.8662 16.6445 19.5462C16.6606 19.5973 16.6705 19.6494 16.6924 19.7393C16.616 19.7134 16.5711 19.7091 16.5386 19.6854C15.1653 18.6946 13.7909 17.7038 12.4207 16.7089C11.82 16.2727 11.2274 15.8264 10.6318 15.3841C10.4722 15.2658 10.3356 15.2374 10.146 15.3741C8.6424 16.4618 7.12969 17.5351 5.62103 18.6156C5.12703 18.969 4.6391 19.3316 4.14509 19.6861C4.11229 19.7093 4.0562 19.7019 3.95915 19.7156C4.02581 19.4823 4.07599 19.2753 4.14348 19.0736C4.49242 18.0263 4.84849 16.9821 5.1954 15.9338C5.57761 14.7805 5.94963 13.6241 6.33388 12.4709C6.38477 12.317 6.35471 12.2199 6.22968 12.1294C5.33009 11.474 4.4305 10.8177 3.53297 10.1593C2.51246 9.41035 1.49501 8.65941 0.475517 7.91051C0.355578 7.82205 0.230495 7.74069 0.0688477 7.62749C0.15774 7.61167 0.199675 7.5966 0.242544 7.59684C2.69011 7.61491 5.13768 7.63195 7.58521 7.65613C7.78527 7.65727 7.8633 7.57708 7.92456 7.39473C8.72824 5.00574 9.54109 2.61885 10.3519 0.231956C10.3633 0.197317 10.3788 0.164743 10.4223 0.0588379C10.5578 0.471979 10.6711 0.823752 10.7885 1.17452C11.477 3.23315 12.1695 5.28976 12.8518 7.3504C12.919 7.5539 13.0341 7.60968 13.2321 7.60979C15.6797 7.61866 18.1273 7.63366 20.5749 7.64764C20.6453 7.64804 20.7147 7.65763 20.8259 7.66541L20.8248 7.66642Z" fill="#FEBD01"/>
<path d="M44.8039 7.80339C43.5042 8.74319 42.2435 9.65565 40.9818 10.5651C40.1486 11.1656 39.3153 11.7661 38.476 12.3574C38.3263 12.4627 38.3604 12.5681 38.4015 12.699C38.928 14.3474 39.4545 15.9968 39.9799 17.6452C40.1965 18.3242 40.41 19.0031 40.6235 19.6831C40.6396 19.7342 40.6495 19.7864 40.6714 19.8763C40.595 19.8504 40.5501 19.846 40.5176 19.8224C39.1443 18.8316 37.7699 17.8408 36.3997 16.8459C35.799 16.4097 35.2064 15.9633 34.6108 15.521C34.4512 15.4027 34.3146 15.3744 34.125 15.5111C32.6214 16.5988 31.1087 17.6721 29.6001 18.7526C29.1061 19.106 28.6181 19.4686 28.1241 19.823C28.0913 19.8463 28.0352 19.8388 27.9382 19.8526C28.0048 19.6192 28.055 19.4123 28.1225 19.2106C28.4714 18.1633 28.8275 17.1191 29.1744 16.0708C29.5566 14.9175 29.9287 13.7611 30.3129 12.6078C30.3638 12.454 30.3337 12.3569 30.2087 12.2663C29.3091 11.611 28.4095 10.9546 27.512 10.2963C26.4915 9.54732 25.474 8.79638 24.4545 8.04747C24.3346 7.95901 24.2095 7.87766 24.0479 7.76446C24.1368 7.74863 24.1787 7.73356 24.2216 7.73381C26.6691 7.75187 29.1167 7.76891 31.5642 7.79309C31.7643 7.79424 31.8423 7.71405 31.9036 7.53169C32.7073 5.14271 33.5201 2.75582 34.3309 0.36892C34.3423 0.334281 34.3578 0.301707 34.4013 0.195801C34.5368 0.608943 34.6501 0.960716 34.7675 1.31149C35.456 3.37011 36.1485 5.42672 36.8308 7.48736C36.898 7.69086 37.0131 7.74664 37.2111 7.74675C39.6587 7.75563 42.1063 7.77063 44.5539 7.7846C44.6243 7.78501 44.6937 7.79459 44.8049 7.80237L44.8039 7.80339Z" fill="#FEBD01"/>
<path d="M68.7831 7.94047C67.4834 8.88027 66.2228 9.79274 64.9611 10.7022C64.1278 11.3027 63.2945 11.9032 62.4552 12.4945C62.3056 12.5998 62.3397 12.7052 62.3808 12.836C62.9072 14.4844 63.4337 16.1339 63.9591 17.7822C64.1757 18.4612 64.3892 19.1402 64.6028 19.8202C64.6188 19.8713 64.6287 19.9234 64.6507 20.0134C64.5743 19.9874 64.5294 19.9831 64.4968 19.9594C63.1235 18.9686 61.7492 17.9779 60.3789 16.983C59.7782 16.5468 59.1857 16.1004 58.59 15.6581C58.4305 15.5398 58.2939 15.5115 58.1042 15.6482C56.6006 16.7358 55.0879 17.8092 53.5793 18.8896C53.0853 19.243 52.5973 19.6057 52.1033 19.9601C52.0705 19.9834 52.0144 19.9759 51.9174 19.9897C51.9841 19.7563 52.0342 19.5494 52.1017 19.3477C52.4507 18.3004 52.8067 17.2562 53.1536 16.2078C53.5359 15.0546 53.9079 13.8982 54.2921 12.7449C54.343 12.5911 54.313 12.494 54.1879 12.4034C53.2883 11.7481 52.3888 11.0917 51.4912 10.4334C50.4707 9.6844 49.4533 8.93347 48.4338 8.18457C48.3138 8.0961 48.1887 8.01474 48.0271 7.90154C48.116 7.88572 48.1579 7.87065 48.2008 7.87089C50.6484 7.88895 53.0959 7.90599 55.5435 7.93018C55.7435 7.93132 55.8215 7.85113 55.8828 7.66877C56.6865 5.27979 57.4993 2.8929 58.3101 0.506005C58.3216 0.471366 58.3371 0.438792 58.3805 0.332886C58.516 0.746028 58.6293 1.0978 58.7467 1.44857C59.4352 3.5072 60.1277 5.56381 60.81 7.62444C60.8773 7.82795 60.9923 7.88373 61.1903 7.88384C63.6379 7.89271 66.0855 7.90771 68.5331 7.92169C68.6035 7.92209 68.6729 7.93167 68.7841 7.93945L68.7831 7.94047Z" fill="#FEBD01"/>
<path d="M92.7621 8.07731C91.4624 9.01711 90.2018 9.92957 88.9401 10.839C88.1068 11.4395 87.2735 12.0401 86.4342 12.6314C86.2846 12.7367 86.3187 12.842 86.3598 12.9729C86.8862 14.6213 87.4127 16.2707 87.9381 17.9191C88.1547 18.5981 88.3683 19.2771 88.5818 19.957C88.5978 20.0082 88.6077 20.0603 88.6297 20.1502C88.5533 20.1243 88.5084 20.1199 88.4758 20.0963C87.1025 19.1055 85.7282 18.1147 84.3579 17.1198C83.7572 16.6836 83.1647 16.2372 82.569 15.7949C82.4095 15.6766 82.2729 15.6483 82.0832 15.785C80.5796 16.8727 79.0669 17.946 77.5583 19.0265C77.0643 19.3799 76.5764 19.7425 76.0823 20.0969C76.0495 20.1202 75.9935 20.1128 75.8964 20.1265C75.9631 19.8931 76.0132 19.6862 76.0807 19.4845C76.4297 18.4372 76.7857 17.393 77.1327 16.3447C77.5149 15.1914 77.8869 14.035 78.2711 12.8818C78.322 12.7279 78.292 12.6308 78.1669 12.5403C77.2673 11.8849 76.3678 11.2286 75.4702 10.5702C74.4497 9.82123 73.4323 9.0703 72.4128 8.3214C72.2928 8.23293 72.1677 8.15158 72.0061 8.03838C72.095 8.02256 72.1369 8.00749 72.1798 8.00773C74.6274 8.02579 77.0749 8.04283 79.5225 8.06702C79.7225 8.06816 79.8006 7.98797 79.8618 7.80561C80.6655 5.41663 81.4783 3.02974 82.2892 0.642846C82.3006 0.608207 82.3161 0.575633 82.3595 0.469727C82.495 0.882869 82.6083 1.23464 82.7257 1.58541C83.4142 3.64404 84.1067 5.70065 84.7891 7.76128C84.8563 7.96479 84.9713 8.02057 85.1693 8.02068C87.6169 8.02955 90.0645 8.04456 92.5121 8.05854C92.5825 8.05894 92.6519 8.06852 92.7631 8.0763L92.7621 8.07731Z" fill="#FEBD01"/>
<path d="M116.741 8.2144C115.441 9.1542 114.181 10.0667 112.919 10.9761C112.086 11.5766 111.252 12.1772 110.413 12.7685C110.263 12.8738 110.298 12.9791 110.339 13.11C110.865 14.7584 111.392 16.4078 111.917 18.0562C112.134 18.7352 112.347 19.4141 112.561 20.0941C112.577 20.1453 112.587 20.1974 112.609 20.2873C112.532 20.2614 112.487 20.257 112.455 20.2334C111.081 19.2426 109.707 18.2518 108.337 17.2569C107.736 16.8207 107.144 16.3743 106.548 15.932C106.388 15.8137 106.252 15.7854 106.062 15.9221C104.559 17.0098 103.046 18.0831 101.537 19.1636C101.043 19.517 100.555 19.8796 100.061 20.234C100.028 20.2573 99.9725 20.2499 99.8754 20.2636C99.9421 20.0302 99.9922 19.8233 100.06 19.6216C100.409 18.5743 100.765 17.5301 101.112 16.4818C101.494 15.3285 101.866 14.1721 102.25 13.0189C102.301 12.865 102.271 12.7679 102.146 12.6773C101.246 12.022 100.347 11.3657 99.4492 10.7073C98.4287 9.95832 97.4113 9.20739 96.3918 8.45849C96.2718 8.37002 96.1467 8.28867 95.9851 8.17547C96.074 8.15964 96.1159 8.14457 96.1588 8.14482C98.6064 8.16288 101.054 8.17992 103.501 8.20411C103.701 8.20525 103.779 8.12506 103.841 7.9427C104.644 5.55372 105.457 3.16683 106.268 0.779931C106.279 0.745292 106.295 0.712718 106.338 0.606812C106.474 1.01995 106.587 1.37172 106.705 1.7225C107.393 3.78112 108.086 5.83773 108.768 7.89837C108.835 8.10188 108.95 8.15765 109.148 8.15776C111.596 8.16664 114.043 8.18164 116.491 8.19562C116.561 8.19602 116.631 8.20561 116.742 8.21339L116.741 8.2144Z" fill="#FEBD01"/>
</g>
<defs>
<clipPath id="clip0_269_180">
<rect width="117" height="21" fill="white"/>
</clipPath>
</defs>
</svg>
